<svg xmlns="http://www.w3.org/2000/svg" width="72" height="72" viewBox="0 0 72 72"><defs><style>.a{fill:#39af3b;}</style></defs><path class="a" d="M25.162,68.116A33.9,33.9,0,0,1,46.028,3.622,1.057,1.057,0,1,0,46.653,1.6,36.009,36.009,0,0,0,24.486,70.119a1.057,1.057,0,0,0,.676-2Z" transform="translate(0 0)"/><path class="a" d="M239.466,35.82a36.057,36.057,0,0,0-15.115-13.051,1.057,1.057,0,1,0-.884,1.92A33.9,33.9,0,0,1,202.92,88.769a1.057,1.057,0,0,0-.4,2.076,36.3,36.3,0,0,0,6.782.638,36.006,36.006,0,0,0,30.16-55.663Z" transform="translate(-173.306 -19.483)"/><path class="a" d="M166.707,181.317a1.057,1.057,0,0,0,1.057-1.057v-12.5h12.5a1.057,1.057,0,1,0,0-2.114h-12.5v-12.5a1.057,1.057,0,0,0-2.114,0v12.5h-12.5a1.057,1.057,0,0,0,0,2.114h12.5v12.5A1.057,1.057,0,0,0,166.707,181.317Z" transform="translate(-130.707 -130.706)"/></svg>