<svg xmlns="http://www.w3.org/2000/svg" width="31.61" height="19.6" viewBox="0 0 31.61 19.6"><defs><style>.a{fill:#f4511e;}.b{fill:#d84315;}.c{fill:#80d8ff;}.d{fill:#fdd844;}.e{fill:#616161;}.f{fill:#b0bec5;}</style></defs><g transform="translate(-793.976 -1031.333)"><g transform="translate(793.976 1031.333)"><path class="a" d="M4.8,10.576v8.193H35.785V12.214l-3.274-1.064-1.786-.58V5.732A2.229,2.229,0,0,0,28.492,3.5H21.267v7.076Z" transform="translate(-4.443 -3.24)"/><path class="b" d="M8.468,143.346a5.211,5.211,0,0,1,9.941,0h3.832a5.211,5.211,0,0,1,9.941,0h3.594v1.488H4.8v-1.488Z" transform="translate(-4.443 -129.305)"/><path class="c" d="M260.1,3.5v7.076h6.928V5.732A2.229,2.229,0,0,0,264.8,3.5Z" transform="translate(-240.746 -3.24)"/><path class="d" d="M377.2,106.4v1.139a2.229,2.229,0,0,0,2.232,2.232h1.042v-2.307Z" transform="translate(-349.132 -98.483)"/><circle class="e" cx="3.721" cy="3.721" r="3.721" transform="translate(19.057 11.883)"/><circle class="f" cx="1.116" cy="1.116" r="1.116" transform="translate(21.661 14.488)"/><circle class="e" cx="3.721" cy="3.721" r="3.721" transform="translate(5.283 11.883)"/><circle class="f" cx="1.116" cy="1.116" r="1.116" transform="translate(7.888 14.488)"/><path d="M283.6,188.874a1.674,1.674,0,1,0,1.674-1.674A1.677,1.677,0,0,0,283.6,188.874Zm1.116,0a.558.558,0,1,1,.558.558A.562.562,0,0,1,284.716,188.874Z" transform="translate(-262.497 -173.27)"/><path d="M98.4,188.874a1.674,1.674,0,1,0,1.674-1.674A1.677,1.677,0,0,0,98.4,188.874Zm1.116,0a.558.558,0,1,1,.558.558A.562.562,0,0,1,99.516,188.874Z" transform="translate(-91.078 -173.27)"/><path d="M22.777,19.592a3.979,3.979,0,0,1-3.959-3.535l-.03-.26h-5.8l-.03.268a3.984,3.984,0,0,1-7.917,0l-.03-.26H.1V7.344L.082,7.292C.052,7.218.03,7.151,0,7.076H16.6V0H24.05a2.493,2.493,0,0,1,2.493,2.493V7.143L31.61,8.781v7H26.773l-.03.26A3.994,3.994,0,0,1,22.777,19.592Zm0-7.449a3.46,3.46,0,1,0,3.46,3.46A3.463,3.463,0,0,0,22.777,12.144ZM9,12.144a3.46,3.46,0,1,0,3.46,3.46A3.463,3.463,0,0,0,9,12.144Zm13.773-.521a4.012,4.012,0,0,1,3.944,3.393l.037.253h4.323V11.549H30.3a2.493,2.493,0,0,1-2.493-2.493V8.111L26.237,7.6H19.094V.521H17.085V7.6H.625v7.672h4.4l.037-.253a3.988,3.988,0,0,1,7.888,0l.037.253H18.8l.037-.253A4,4,0,0,1,22.777,11.623Zm5.551-2.575A1.975,1.975,0,0,0,30.3,11.02h.781V9.16l-2.753-.893ZM19.615,7.076h6.407V2.493A1.975,1.975,0,0,0,24.05.521H19.615Z"/></g></g></svg>