<svg xmlns="http://www.w3.org/2000/svg" width="29.419" height="12.079" viewBox="0 0 29.419 12.079"><defs><style>.a{fill:#ffb47d;}.b{fill:#ff9164;}.c{fill:#ff7d5a;}.d{fill:#ededee;}.e{fill:#504b5a;}.f{fill:#dcdbde;}.g{fill:#625d6b;}.h{fill:#ff6464;}</style></defs><path class="a" d="M28.142,4.89c-.954-.586-4.039-1.339-8.36-1.339L17.5.885A2.531,2.531,0,0,0,15.571,0H8.733A3.034,3.034,0,0,0,6.751.735L4.056,3.045l-2.873.408a1.006,1.006,0,0,0-.839.758L0,5.579,7.607,9.13H28.912V6.263A1.61,1.61,0,0,0,28.142,4.89Z" transform="translate(0.002)"/><path class="b" d="M28.912,81.528c0-1.017-1.523-2.028-8.624-2.028H.506A.506.506,0,0,0,0,80.006v3.045l9.636,1.523H28.907V81.528Z" transform="translate(0.002 -74.645)"/><path class="c" d="M28.887,133.514H5.1l-4.51-1a.506.506,0,0,0-.6.385.5.5,0,0,0,.385.6l4.562,1.017a.705.705,0,0,0,.109.012H28.881a.509.509,0,0,0,.006-1.017Z" transform="translate(0.027 -124.562)"/><circle class="d" cx="2.534" cy="2.534" r="2.534" transform="translate(21.812 6.505)"/><path class="e" d="M373.745,103.09a3.045,3.045,0,1,1,3.045-3.045A3.05,3.05,0,0,1,373.745,103.09Zm0-5.068a2.028,2.028,0,1,0,2.028,2.028A2.028,2.028,0,0,0,373.745,98.023Z" transform="translate(-349.399 -91.012)"/><circle class="f" cx="1.017" cy="1.017" r="1.017" transform="translate(23.329 7.935)"/><circle class="d" cx="2.534" cy="2.534" r="2.534" transform="translate(2.541 6.505)"/><path class="e" d="M38.345,103.09a3.045,3.045,0,1,1,3.045-3.045A3.05,3.05,0,0,1,38.345,103.09Zm0-5.068a2.028,2.028,0,1,0,2.028,2.028A2.028,2.028,0,0,0,38.345,98.023Z" transform="translate(-33.27 -91.012)"/><circle class="f" cx="1.017" cy="1.017" r="1.017" transform="translate(4.058 7.935)"/><g transform="translate(27.903 6.853)"><path class="c" d="M486.611,115.811h-.506a.506.506,0,0,1-.506-.506h0a.506.506,0,0,1,.506-.506h.506a.506.506,0,0,1,.506.506h0A.506.506,0,0,1,486.611,115.811Z" transform="translate(-485.6 -114.8)"/></g><path class="b" d="M70.6,3.045,73.295.735A3.034,3.034,0,0,1,75.277,0h6.837a2.531,2.531,0,0,1,1.925.885l2.287,2.666H74.317a7.973,7.973,0,0,1-1.333-.109Z" transform="translate(-66.542)"/><path class="g" d="M131.418,9.168a1.025,1.025,0,0,0-.781-.368h-4.683a1.018,1.018,0,0,0-.718.3l-1.523,1.523a.723.723,0,0,0-.213.506h0a.718.718,0,0,0,.718.718H133.1a.253.253,0,0,0,.2-.414Z" transform="translate(-116.402 -8.294)"/><path class="e" d="M160.423,11.845H158.9L159.917,8.8h1.011Z" transform="translate(-149.769 -8.294)"/><path class="d" d="M477.677,88.3h-.471a.506.506,0,0,0,0,1.011h.994A1.609,1.609,0,0,0,477.677,88.3Z" transform="translate(-449.309 -83.029)"/><path class="g" d="M280.16,9.179a2.5,2.5,0,0,0-.4-.379h-.827a.253.253,0,0,0-.2.414l1.885,2.264a1.025,1.025,0,0,0,.781.368h1.046Z" transform="translate(-262.663 -8.294)"/><path class="h" d="M0,80v.506H1.017a.506.506,0,0,0,0-1.011H.506A.5.5,0,0,0,0,80Z" transform="translate(0.002 -74.753)"/></svg>