<svg xmlns="http://www.w3.org/2000/svg" width="31.112" height="21.98" viewBox="0 0 31.112 21.98"><defs><style>.a{fill:#41767f;}.b{fill:#b0d3f0;}.c{fill:#3f5c6c;}.d{fill:#5e5f62;}.e{fill:#bdc3c7;}.f{fill:#ebd2af;}.g{fill:#e1c3a0;}.h{fill:#f0dcbe;}.i{fill:#b99678;}</style></defs><g transform="translate(-426.609 -1029.333)"><path class="a" d="M21.456,13.409H10.19L1.873,12.366l-.05-.025H.534A.534.534,0,0,1,0,11.806V5.9H15.019V.534A.534.534,0,0,1,15.553,0h4.828l2.873,5.023,7.355.308a.536.536,0,0,1,.5.534v7a.534.534,0,0,1-.534.534H21.456Z" transform="translate(426.609 1033.076)"/><path class="b" d="M287.713,5.023l-4.067-.176a.536.536,0,0,1-.5-.421L282.2,0h3.181a.547.547,0,0,1,.484.3Z" transform="translate(162.15 1033.076)"/><g transform="translate(428.218 1043.261)"><path class="c" d="M34.181,165.319H32.037a2.675,2.675,0,0,0-4.287,0H25.6a2.236,2.236,0,0,1,.264-1.044,4.679,4.679,0,0,1,4.03-2.175C31.968,162.1,34.181,163.546,34.181,165.319Z" transform="translate(-25.6 -162.094)"/><path class="c" d="M350.006,165.235h-2.075a2.675,2.675,0,0,0-4.287,0H341.5a4.127,4.127,0,0,1,4.294-3.219,4.215,4.215,0,0,1,3.684,1.811A3.9,3.9,0,0,1,350.006,165.235Z" transform="translate(-321.641 -162.01)"/></g><path class="d" d="M49.137,190.919a3.216,3.216,0,1,1-.641-1.93A3.217,3.217,0,0,1,49.137,190.919Z" transform="translate(386.593 857.176)"/><path class="e" d="M71.519,214.909a1.609,1.609,0,0,1-3.219,0,1.64,1.64,0,0,1,.321-.968,1.616,1.616,0,0,1,2.577,0A1.64,1.64,0,0,1,71.519,214.909Z" transform="translate(362.603 833.185)"/><path class="d" d="M364.837,190.919a3.216,3.216,0,1,1-.641-1.93A3.217,3.217,0,0,1,364.837,190.919Z" transform="translate(90.74 857.176)"/><path class="e" d="M387.219,214.909a1.609,1.609,0,1,1-3.219,0,1.641,1.641,0,0,1,.321-.968,1.616,1.616,0,0,1,2.577,0A1.64,1.64,0,0,1,387.219,214.909Z" transform="translate(66.749 833.185)"/><g transform="translate(434.316 1034.478)"><path class="f" d="M130.14,41.264h-5.626a.212.212,0,0,1-.214-.214V37.7h6.06v3.351A.217.217,0,0,1,130.14,41.264Z" transform="translate(-124.193 -36.732)"/><rect class="g" width="6.06" height="0.327" transform="translate(0.107 0.968)"/><path class="h" d="M128.767,23.375h-6.06a.106.106,0,0,1-.107-.107v-.754a.212.212,0,0,1,.214-.214h5.846a.212.212,0,0,1,.214.214v.754A.11.11,0,0,1,128.767,23.375Z" transform="translate(-122.6 -22.3)"/><path class="i" d="M158.729,46.3h-1.515a.212.212,0,0,0-.214.214h0a.212.212,0,0,0,.214.214h1.515a.212.212,0,0,0,.214-.214h0A.208.208,0,0,0,158.729,46.3Z" transform="translate(-154.837 -44.791)"/></g><g transform="translate(434.316 1029.333)"><path class="f" d="M130.14,41.264h-5.626a.212.212,0,0,1-.214-.214V37.7h6.06v3.351A.217.217,0,0,1,130.14,41.264Z" transform="translate(-124.193 -36.732)"/><rect class="g" width="6.06" height="0.327" transform="translate(0.107 0.968)"/><path class="h" d="M128.767,23.375h-6.06a.106.106,0,0,1-.107-.107v-.754a.212.212,0,0,1,.214-.214h5.846a.212.212,0,0,1,.214.214v.754A.11.11,0,0,1,128.767,23.375Z" transform="translate(-122.6 -22.3)"/><path class="i" d="M158.729,46.3h-1.515a.212.212,0,0,0-.214.214h0a.212.212,0,0,0,.214.214h1.515a.212.212,0,0,0,.214-.214h0A.208.208,0,0,0,158.729,46.3Z" transform="translate(-154.837 -44.791)"/></g><g transform="translate(427.458 1034.478)"><path class="f" d="M21.134,41.264h-5.62a.212.212,0,0,1-.214-.214V37.7h6.06v3.351A.227.227,0,0,1,21.134,41.264Z" transform="translate(-15.187 -36.732)"/><rect class="g" width="6.06" height="0.327" transform="translate(0.107 0.968)"/><path class="h" d="M19.667,23.375h-6.06a.106.106,0,0,1-.107-.107v-.754a.212.212,0,0,1,.214-.214h5.84a.212.212,0,0,1,.214.214v.754A.1.1,0,0,1,19.667,23.375Z" transform="translate(-13.5 -22.3)"/><path class="i" d="M49.629,46.3H48.114a.212.212,0,0,0-.214.214h0a.212.212,0,0,0,.214.214h1.515a.212.212,0,0,0,.214-.214h0A.208.208,0,0,0,49.629,46.3Z" transform="translate(-45.737 -44.791)"/></g><g transform="translate(427.458 1029.333)"><path class="f" d="M21.134,41.264h-5.62a.212.212,0,0,1-.214-.214V37.7h6.06v3.351A.227.227,0,0,1,21.134,41.264Z" transform="translate(-15.187 -36.732)"/><rect class="g" width="6.06" height="0.327" transform="translate(0.107 0.968)"/><path class="h" d="M19.667,23.375h-6.06a.106.106,0,0,1-.107-.107v-.754a.212.212,0,0,1,.214-.214h5.84a.212.212,0,0,1,.214.214v.754A.1.1,0,0,1,19.667,23.375Z" transform="translate(-13.5 -22.3)"/><path class="i" d="M49.629,46.3H48.114a.212.212,0,0,0-.214.214h0a.212.212,0,0,0,.214.214h1.515a.212.212,0,0,0,.214-.214h0A.208.208,0,0,0,49.629,46.3Z" transform="translate(-45.737 -44.791)"/></g></g></svg>