<svg xmlns="http://www.w3.org/2000/svg" width="25.518" height="22.755" viewBox="0 0 25.518 22.755"><defs><style>.a{fill:#414669;}.b{fill:#f63;}.c{fill:#ff5019;}.d{fill:#501e0f;}.e{fill:#b9783d;}</style></defs><g transform="translate(-1168.835 -1030.344)"><path class="a" d="M49.592,39.675H30.743l-.431-1.725a.531.531,0,0,0-.564-.4H25.522a.532.532,0,0,0,0,1.065h3.854l.426,1.709L31.893,51.37l-1.017,3.045a.532.532,0,0,0,.335.671.457.457,0,0,0,.17.027.53.53,0,0,0,.506-.362l.942-2.821,16.826-2.145a.529.529,0,0,0,.463-.527V46.068h0v-5.86A.526.526,0,0,0,49.592,39.675ZM30.967,40.74h4.2l.266,2.544-3.966.117Zm.7,3.715,3.875-.112.256,2.433-3.63.33Zm1.214,6.393-.511-2.693,3.54-.319.266,2.544c0,.016.005.032.005.048ZM36.237,40.74h4.2v.032l.138,2.358-4.077.122Zm.378,3.572,4.024-.117.128,2.134-3.9.351Zm.628,5.983v-.027l-.266-2.528,3.854-.346.138,2.422ZM41.5,40.74h3.726v2.252l-3.588.106Zm.2,3.423,3.524-.1v1.863l-3.4.309Zm.325,5.52-.138-2.39,3.337-.3v2.289Zm7.032-.894-2.768.351V46.893l2.768-.25Zm0-3.21-2.768.25v-1.8l2.768-.08Zm0-2.7-2.768.08V40.74h2.768Z" transform="translate(1144.234 993.197)"/><path class="b" d="M40.255,46.767v1.065a.264.264,0,0,1-.266.266H24.021a.264.264,0,0,1-.266-.266V46.767a.264.264,0,0,1,.266-.266H39.989A.264.264,0,0,1,40.255,46.767ZM20.763,30H18.5a1,1,0,0,0-1,1h0a1,1,0,0,0,1,1h2.262a1,1,0,0,0,1-1h0A1.006,1.006,0,0,0,20.763,30Z" transform="translate(1151.335 1000.344)"/><path class="c" d="M196.71,337.766v3.726a.264.264,0,0,1-.266.266H195.38a.264.264,0,0,1-.266-.266v-3.726a.264.264,0,0,1,.266-.266h1.065A.264.264,0,0,1,196.71,337.766Zm-10.38-.266h-1.065a.264.264,0,0,0-.266.266v3.726a.264.264,0,0,0,.266.266h1.065a.264.264,0,0,0,.266-.266v-3.726A.264.264,0,0,0,186.331,337.5Z" transform="translate(992.751 709.212)"/><path class="d" d="M178.839,389.363a1.863,1.863,0,1,1-1.863-1.863A1.865,1.865,0,0,1,178.839,389.363ZM166.863,387.5a1.863,1.863,0,1,0,1.863,1.863A1.865,1.865,0,0,0,166.863,387.5Z" transform="translate(1011.686 661.873)"/><path class="e" d="M192.243,403.565a1.065,1.065,0,1,1-1.065-1.065A1.068,1.068,0,0,1,192.243,403.565ZM181.065,402.5a1.065,1.065,0,1,0,1.065,1.065A1.068,1.068,0,0,0,181.065,402.5Z" transform="translate(997.485 647.671)"/></g></svg>