<svg xmlns="http://www.w3.org/2000/svg" width="162.558" height="50.881" viewBox="0 0 162.558 50.881"><defs><style>.a{fill:#25a727;}.b{opacity:0.8;}.c{fill:#fff;}.d,.f{fill:#1a1a1a;}.d{stroke:#1a1a1a;stroke-miterlimit:10;stroke-width:0.755px;}.e{fill:none;}</style></defs><g transform="translate(0 0)"><g transform="translate(119.247 0)"><rect class="a" width="42.934" height="50.503" rx="1.078" transform="translate(0)"/><g class="b" transform="translate(27.708 39.652)"><g transform="translate(8.429 3.944)"><path class="c" d="M273.4,333.677l-.212.437v0l-.633,1.185-.089.189a1.058,1.058,0,0,1-1.257.552,1,1,0,0,1-.161-.061,1.1,1.1,0,0,1-.254-.174,1.087,1.087,0,0,1-.289-.455,1.021,1.021,0,0,1-.051-.348,1.071,1.071,0,0,1,.1-.441l.26-.535.6-1.122.072-.156a.936.936,0,0,1,.071-.122,1.131,1.131,0,0,1,.208-.238,1.066,1.066,0,0,1,1.135-.134,1.113,1.113,0,0,1,.258.176A1.063,1.063,0,0,1,273.4,333.677Z" transform="translate(-270.452 -332.151)"/></g><g transform="translate(6.099 1.96)"><path class="c" d="M268.7,329.985l-.075.156-1.06,2.188-.26.536a1,1,0,0,0-.1.44,1.038,1.038,0,0,0,.34.8,1.016,1.016,0,0,0,.254.173,1.059,1.059,0,0,0,1.417-.492l.088-.186,1.094-2.252.212-.443a1.06,1.06,0,0,0-.237-1.243,1.046,1.046,0,0,0-.257-.175,1.05,1.05,0,0,0-1.414.494Z" transform="translate(-267.204 -329.384)"/></g><g transform="translate(3.876 0.735)"><path class="c" d="M265.6,328.278l-.074.156-1.06,2.188-.26.536a1.013,1.013,0,0,0-.1.44,1.042,1.042,0,0,0,.34.8,1.018,1.018,0,0,0,.255.174,1.059,1.059,0,0,0,1.416-.492l.089-.186,1.094-2.252.212-.443a1.06,1.06,0,1,0-1.909-.925Z" transform="translate(-264.105 -327.677)"/></g><g transform="translate(1.6 0.174)"><path class="c" d="M262.183,327.5l-.074.156-.814,1.679-.26.537a1,1,0,0,0-.1.44,1.042,1.042,0,0,0,.34.8,1.019,1.019,0,0,0,.254.173,1.059,1.059,0,0,0,1.417-.492l.088-.186.848-1.744.212-.443a1.061,1.061,0,0,0-.237-1.243A1.074,1.074,0,0,0,263.6,327a1.051,1.051,0,0,0-1.415.494Z" transform="translate(-260.932 -326.894)"/></g><path class="c" d="M258.858,327.253l-.054.087a1,1,0,0,0-.1.44,1.039,1.039,0,0,0,.34.8.987.987,0,0,0,.255.173,1.059,1.059,0,0,0,1.416-.491l.055-.087a1.061,1.061,0,0,0-.237-1.243,1.074,1.074,0,0,0-.257-.175,1.05,1.05,0,0,0-1.414.494Z" transform="translate(-258.701 -326.652)"/></g><g transform="translate(0 39.022)"><path class="d" d="M241.535,325.774c1.039,0,2.668.1,3.977.237a.772.772,0,0,1,.6,1.125l-.27.519a.773.773,0,0,1-.79.409,28.3,28.3,0,0,0-3.52-.264,25.683,25.683,0,0,0-19.909,9.456h-1.554v-1.3A27.7,27.7,0,0,1,241.535,325.774Z" transform="translate(-220.071 -325.774)"/><path class="d" d="M278.452,338.984v1.245H276.89a24.054,24.054,0,0,0-1.948-2.145.772.772,0,0,1-.15-.911l.242-.464a.77.77,0,0,1,1.224-.2A28.95,28.95,0,0,1,278.452,338.984Z" transform="translate(-235.518 -328.747)"/></g><rect class="e" width="42.932" height="49.343" transform="translate(0 1.159)"/><g transform="translate(4.785 6.116)"><path class="f" d="M259.939,294.842a.763.763,0,0,0-.843-.626c-.828.093-11.1,1.229-14.087.982,0,0,6.24-.773,6.572-.882v-8.01s.572-4.392-5.783-5.791c0,0,5.984-.24,6.6,5.6l.07,8.01,1.044-.232-.2-7.361a6.8,6.8,0,0,0-6.8-6.633l-6.51.031a6.729,6.729,0,0,0-6.835,7.128v8.42c-1.879-.023-3.742-.24-5.605-.333a.772.772,0,0,0-.8.905l.147.866a.79.79,0,0,0,.734.642c2.868.123,5.752.348,8.652.348a202.066,202.066,0,0,0,23.133-1.323.79.79,0,0,0,.673-.92Z" transform="translate(-226.742 -279.897)"/><path class="f" d="M253.139,306.911h-4.363a1.927,1.927,0,0,0-1.924,1.868h-1.085a1.927,1.927,0,0,0-1.924-1.868H239.48a2.53,2.53,0,0,0-2.53,2.53v1.624a3.3,3.3,0,0,0,3.3,3.3,5.524,5.524,0,0,0,5.493-4.945h1.133a5.524,5.524,0,0,0,5.493,4.945,3.3,3.3,0,0,0,3.3-3.3v-1.624A2.53,2.53,0,0,0,253.139,306.911Z" transform="translate(-229.628 -287.535)"/></g></g><g transform="translate(0 14.076)"><g transform="translate(0 0)"><path class="c" d="M78.764,318a.919.919,0,0,0-.679.268.88.88,0,0,0-.268.648.866.866,0,0,0,.277.648,1,1,0,0,0,1.36,0,.9.9,0,0,0,0-1.3A.956.956,0,0,0,78.764,318Z" transform="translate(-71.886 -303.516)"/><path class="c" d="M83.655,304.761q.493,0,.494-.535c0-.358-.165-.535-.494-.535h-2.2a.451.451,0,0,0-.36.154.559.559,0,0,0-.134.382q0,.535.494.535h.495v8.08l-9.371-.017v-7.947h.474q.495,0,.495-.535c0-.358-.165-.535-.495-.535h-2.08c-.33,0-.495.178-.495.535s.165.535.495.535h.515v7.944h-.617q-.495,0-.495.535a.592.592,0,0,0,.134.4.452.452,0,0,0,.361.155H83.634q.514,0,.515-.546t-.515-.546h-.515v-8.061Z" transform="translate(-70.371 -300.605)"/><path class="c" d="M127.636,303.549a4.322,4.322,0,0,0-3.42,1.431,4.274,4.274,0,0,0-1.211,2.829l.021,4.837h-6.443v-8h.5q.5,0,.5-.543c0-.369-.166-.55-.5-.55h-1.665v9.1l-6.411-.008V302.471h-1.83q-.5,0-.5.542t.5.543h.655v9.082h-2.591c-.045-.03-.723-.468-.723-.954a1.346,1.346,0,0,0,.558-1.093c0-.444-.256-.663-.761-.663a.835.835,0,0,0-.693.407,2.038,2.038,0,0,0-.279,1.2,2.386,2.386,0,0,0,2.386,2.177H124.1v-1.544a6.161,6.161,0,0,0,3.51,1.552,4.311,4.311,0,0,0,3.45-1.454,5.39,5.39,0,0,0,1.259-3.661,5.27,5.27,0,0,0-1.266-3.638A4.38,4.38,0,0,0,127.636,303.549Zm2.508,8.014a3.2,3.2,0,0,1-2.524,1.19,3.145,3.145,0,0,1-2.508-1.2,4.226,4.226,0,0,1-.964-2.26,10.587,10.587,0,0,1,0-1.386,4.121,4.121,0,0,1,.971-2.222,3.187,3.187,0,0,1,2.5-1.175,3.22,3.22,0,0,1,2.516,1.183,4.7,4.7,0,0,1,.008,5.868Z" transform="translate(-77.077 -300.357)"/><path class="c" d="M119.132,301.649a.942.942,0,0,0,.679-.268.9.9,0,0,0,0-1.3.954.954,0,0,0-.69-.268.92.92,0,0,0-.679.268.881.881,0,0,0-.268.648.867.867,0,0,0,.278.648A.943.943,0,0,0,119.132,301.649Z" transform="translate(-80.096 -299.817)"/><path class="c" d="M97.716,305.244a6.054,6.054,0,0,0-.881-.753,4.655,4.655,0,0,0-2.539-.672,4.322,4.322,0,0,0-3.42,1.431,5.3,5.3,0,0,0-1.266,3.646,5.416,5.416,0,0,0,1.235,3.653,4.257,4.257,0,0,0,3.428,1.439,4.333,4.333,0,0,0,3.45-1.447,1.588,1.588,0,0,0,.166-.218,10.237,10.237,0,0,1-.422,1.461,8.437,8.437,0,0,1-1.589,2.75c-.346.391-.58.55-.7.482a1.271,1.271,0,0,0-.249-.309.946.946,0,0,0-.791-.21,1.167,1.167,0,0,0-.73.339.76.76,0,0,0,.053,1.213,1.513,1.513,0,0,0,1.371.316,3.973,3.973,0,0,0,1.921-1.379,8.4,8.4,0,0,0,1.733-3.171C99.088,311.941,99.632,307.16,97.716,305.244Zm.106,3.91a4.255,4.255,0,0,1-1.017,2.688,3.255,3.255,0,0,1-5.032-.014,4.409,4.409,0,0,1-1.009-2.946,4.313,4.313,0,0,1,1.017-2.923,3.251,3.251,0,0,1,5.016.015,4.035,4.035,0,0,1,.95,2,5.4,5.4,0,0,1,.083.934C97.829,308.987,97.829,309.07,97.822,309.154Z" transform="translate(-74.285 -300.631)"/><g transform="translate(60.367 0.214)"><path class="c" d="M184.65,304.916h.5q.5,0,.5-.542c0-.369-.165-.55-.5-.55h-1.665v9.1h1.168Z" transform="translate(-153.748 -300.846)"/><path class="c" d="M178.378,304.916h.5q.5,0,.5-.542c0-.369-.166-.55-.5-.55H177.21v9.1h1.168Z" transform="translate(-152.472 -300.846)"/><path class="c" d="M172.1,304.916h.5q.5,0,.5-.542c0-.369-.166-.55-.5-.55h-1.665v9.1H172.1Z" transform="translate(-151.195 -300.846)"/><path class="c" d="M162.532,304.916h.5q.5,0,.5-.542c0-.369-.166-.55-.5-.55h-1.665v9.1h1.168Z" transform="translate(-149.248 -300.846)"/><path class="c" d="M192.7,305.24a4.384,4.384,0,0,0-3.42-1.415,4.322,4.322,0,0,0-3.42,1.431,4.279,4.279,0,0,0-1.211,2.829l.021,4.837h-7.61l-25.158,0v1.068h33.846v-1.544a6.158,6.158,0,0,0,3.51,1.552,4.31,4.31,0,0,0,3.45-1.454,5.39,5.39,0,0,0,1.258-3.661A5.273,5.273,0,0,0,192.7,305.24Zm-.911,6.6a3.2,3.2,0,0,1-2.524,1.19,3.144,3.144,0,0,1-2.508-1.2,4.227,4.227,0,0,1-.965-2.26,10.882,10.882,0,0,1,0-1.386,4.128,4.128,0,0,1,.972-2.222,3.187,3.187,0,0,1,2.5-1.175,3.221,3.221,0,0,1,2.516,1.183,4.7,4.7,0,0,1,.008,5.868Z" transform="translate(-147.323 -300.846)"/><path class="c" d="M150,303.827c-.333,0-.5.179-.5.538s.163.546.5.546h.656v10.246a2.709,2.709,0,0,1-.452,1.673,1.362,1.362,0,0,1-1.126.589,1.867,1.867,0,0,1-1.135-.333,1.523,1.523,0,0,1-.6-.759,1.337,1.337,0,0,0,.554-1.092c0-.436-.257-.657-.76-.657a.866.866,0,0,0-.691.4,1.688,1.688,0,0,0-.3,1.016,2.119,2.119,0,0,0,.828,1.672,3.055,3.055,0,0,0,2.03.7,2.647,2.647,0,0,0,2.014-.844,3.281,3.281,0,0,0,.81-2.363v-11.33Z" transform="translate(-146.154 -300.847)"/><g transform="translate(10.405)"><path class="c" d="M163.531,301.918a.943.943,0,0,0,.679-.268.9.9,0,0,0,0-1.3.952.952,0,0,0-.69-.268.917.917,0,0,0-.679.268.881.881,0,0,0-.268.648.866.866,0,0,0,.278.649A.942.942,0,0,0,163.531,301.918Z" transform="translate(-159.899 -300.086)"/><path class="c" d="M160.173,301.918a.944.944,0,0,0,.68-.268.9.9,0,0,0,0-1.3.954.954,0,0,0-.69-.268.916.916,0,0,0-.679.268.878.878,0,0,0-.268.648.868.868,0,0,0,.277.649A.943.943,0,0,0,160.173,301.918Z" transform="translate(-159.216 -300.086)"/></g></g></g><g transform="translate(27.994 23.026)"><path class="c" d="M113.922,337.634l.349,0c.216,0,.324.114.327.347s-.1.35-.319.354l-1.439.015a.3.3,0,0,1-.237-.1.369.369,0,0,1-.091-.249c0-.233.1-.351.319-.354l.323,0-.076-7.115-2.817,2.089a.432.432,0,0,1-.268.11.6.6,0,0,1-.3-.091l-2.735-1.64.072,6.713.31,0c.215,0,.324.113.327.346s-.1.35-.319.353l-1.358.014q-.323,0-.327-.346c0-.233.1-.351.319-.354l.336,0-.076-7.17-.4,0c-.215,0-.323-.113-.326-.346a.383.383,0,0,1,.084-.264.293.293,0,0,1,.234-.1l.417,0a.993.993,0,0,1,.5.143l3.318,1.982,2.735-2.047a.692.692,0,0,1,.362-.152l1.009-.01c.224,0,.338.116.34.353s-.108.358-.332.36l-.336,0Z" transform="translate(-105.514 -328.932)"/><path class="c" d="M123.561,337.227a.6.6,0,0,1,.441-.274.41.41,0,0,1,.462.466.879.879,0,0,1-.309.67,1.12,1.12,0,0,1-.784.3,1.885,1.885,0,0,1-1.641-1.22,3.914,3.914,0,0,0-.479-.749,1.17,1.17,0,0,0-.9-.367c-.363,0-.545.037-.543.1l.015,1.439.363,0c.215,0,.324.114.326.347s-.1.35-.319.353l-1.453.015c-.216,0-.324-.113-.327-.346s.1-.351.319-.354l.323,0-.077-7.17-.323,0c-.215,0-.323-.116-.327-.354s.1-.358.319-.36l1.385-.014a5.067,5.067,0,0,1,3,.776,2.633,2.633,0,0,1,1.167,2.274,3.156,3.156,0,0,1-.737,2.142,2.787,2.787,0,0,1-1.96.995,1.542,1.542,0,0,1,1.087,1.024,2.916,2.916,0,0,0,.323.69.605.605,0,0,0,.44.231A.942.942,0,0,1,123.561,337.227Zm-2.637-1.841a2.547,2.547,0,0,0,1.842-.726,2.52,2.52,0,0,0,.706-1.9,2.122,2.122,0,0,0-.934-1.826,3.688,3.688,0,0,0-2.212-.629q-.579.006-.577.181l.05,4.762C119.8,335.349,120.177,335.395,120.925,335.387Z" transform="translate(-108.121 -328.923)"/><path class="c" d="M129.743,339.454a.621.621,0,0,1,.183-.473.658.658,0,0,1,.476-.187.678.678,0,0,1,.487.177.617.617,0,0,1,.2.469.6.6,0,0,1-.19.466.707.707,0,0,1-.483.181.678.678,0,0,1-.48-.171A.6.6,0,0,1,129.743,339.454Z" transform="translate(-110.443 -330.772)"/><path class="c" d="M143.868,337.267l.35,0c.215,0,.324.115.326.348s-.1.351-.318.352l-1.439.016a.3.3,0,0,1-.237-.1.362.362,0,0,1-.091-.247c0-.233.1-.352.319-.355l.323,0-.075-7.116-2.817,2.089a.427.427,0,0,1-.268.111.6.6,0,0,1-.3-.091l-2.735-1.64.072,6.713.309,0q.323,0,.327.348c0,.233-.1.35-.319.352l-1.358.015c-.216,0-.324-.113-.327-.346s.1-.352.319-.354l.336,0-.076-7.17-.4,0q-.323,0-.326-.346a.382.382,0,0,1,.084-.263.3.3,0,0,1,.234-.1l.417,0a1.01,1.01,0,0,1,.5.144l3.318,1.983,2.736-2.047a.685.685,0,0,1,.362-.152l1.009-.011c.224,0,.337.116.34.354s-.109.358-.332.36l-.337,0Z" transform="translate(-111.606 -328.857)"/><path class="c" d="M155.015,337.161q.309,0,.313.346c0,.233-.1.351-.305.354l-1.48.016c-.215,0-.324-.113-.327-.346s.1-.352.319-.354l.309,0-.4-1.22-3.592.038-.364,1.227.323,0q.323,0,.327.347c0,.233-.1.351-.319.353l-1.359.015q-.323,0-.327-.347c0-.233.1-.351.319-.353l.336,0,2.156-7.194-.538.006c-.206,0-.311-.115-.313-.354s.1-.358.305-.36l1.386-.014c.2,0,.319.06.366.184l2.53,7.669Zm-5-1.816,3.256-.035-1.7-5.229Z" transform="translate(-114.183 -328.843)"/><path class="c" d="M164.445,329.17c.223,0,.337.116.34.354s-.109.358-.333.36l-.363,0,.081,7.56a.322.322,0,0,1-.359.368.448.448,0,0,1-.448-.251l-3.679-6.863.069,6.4.309,0c.215,0,.324.115.326.347s-.1.35-.318.353l-1.333.014c-.215,0-.323-.112-.327-.346s.1-.351.319-.354l.323,0-.076-7.169-.323,0c-.215,0-.323-.115-.327-.353s.1-.358.319-.361l.9-.009a.336.336,0,0,1,.311.212l3.6,6.7-.066-6.243-.35,0c-.215,0-.324-.115-.327-.353s.1-.358.319-.361Z" transform="translate(-116.258 -328.814)"/><path class="c" d="M168.6,329.851l-.308,0c-.225,0-.338-.115-.341-.353s.1-.358.319-.359l1.6-.018a5.507,5.507,0,0,1,3.571,1.113,3.893,3.893,0,0,1,1.426,3.18,3.778,3.778,0,0,1-1.345,3.163,5.707,5.707,0,0,1-3.628,1.128l-1.533.017q-.323,0-.327-.347c0-.233.1-.351.319-.353l.323,0Zm.769.059.075,7.035q0,.161.667.155a5.005,5.005,0,0,0,1.384-.223,4.757,4.757,0,0,0,1.325-.633,2.9,2.9,0,0,0,.964-1.141,3.948,3.948,0,0,0,.344-1.8,3.344,3.344,0,0,0-.626-1.944,3.988,3.988,0,0,0-3.543-1.618Q169.369,329.748,169.371,329.91Z" transform="translate(-118.216 -328.805)"/><path class="c" d="M184.813,333.212a4.841,4.841,0,0,1-.974,3.266,3.157,3.157,0,0,1-2.483,1.2,3.12,3.12,0,0,1-2.5-1.17,4.931,4.931,0,0,1-1.037-3.258,4.747,4.747,0,0,1,.975-3.24,3.25,3.25,0,0,1,4.984-.04A4.837,4.837,0,0,1,184.813,333.212Zm-1.114-1.724a3.593,3.593,0,0,0-.95-1.436,2.085,2.085,0,0,0-1.48-.576,2.17,2.17,0,0,0-1.466.567,3.286,3.286,0,0,0-.92,1.389,5.048,5.048,0,0,0-.285,1.758,4.979,4.979,0,0,0,.782,2.642,2.229,2.229,0,0,0,3.937.038,4.709,4.709,0,0,0,.7-2.6A5.314,5.314,0,0,0,183.7,331.488Z" transform="translate(-120.222 -328.745)"/><path class="c" d="M194.777,333.106a4.841,4.841,0,0,1-.973,3.266,3.158,3.158,0,0,1-2.484,1.2,3.12,3.12,0,0,1-2.5-1.17,4.935,4.935,0,0,1-1.037-3.258,4.746,4.746,0,0,1,.975-3.24,3.181,3.181,0,0,1,2.484-1.184,3.144,3.144,0,0,1,2.5,1.144A4.837,4.837,0,0,1,194.777,333.106Zm-1.114-1.724a3.6,3.6,0,0,0-.95-1.436,2.091,2.091,0,0,0-1.48-.577,2.174,2.174,0,0,0-1.467.568,3.293,3.293,0,0,0-.92,1.389,5.066,5.066,0,0,0-.285,1.758,4.979,4.979,0,0,0,.782,2.642,2.259,2.259,0,0,0,1.991,1.2,2.234,2.234,0,0,0,1.945-1.165,4.708,4.708,0,0,0,.7-2.6A5.311,5.311,0,0,0,193.663,331.382Z" transform="translate(-122.249 -328.724)"/><path class="c" d="M198.512,329.532l-.323,0c-.216,0-.324-.115-.327-.353s.1-.358.319-.36l1.574-.018q2.649-.027,2.665,1.439a1.433,1.433,0,0,1-.206.8.959.959,0,0,1-.587.437,1.891,1.891,0,0,1,1.188.956,3.478,3.478,0,0,1,.5,1.8,3.242,3.242,0,0,1-.763,2.241,3.2,3.2,0,0,1-2.5.915l-1.776.018a.306.306,0,0,1-.231-.1.357.357,0,0,1-.1-.249c0-.233.1-.351.319-.354l.323,0Zm.785,1.66.981-.01a2.584,2.584,0,0,0,1.082-.193.674.674,0,0,0,.377-.67q-.011-.943-1.746-.923c-.476,0-.713.042-.712.115Zm.007.66.051,4.828c0,.072.217.106.647.1a2.638,2.638,0,0,0,1.93-.653,2.548,2.548,0,0,0,.613-1.888,2.375,2.375,0,0,0-.659-1.831,2.32,2.32,0,0,0-1.64-.568Z" transform="translate(-124.3 -328.74)"/></g></g></g></svg>