<svg xmlns="http://www.w3.org/2000/svg" width="53.463" height="62.377" viewBox="0 0 53.463 62.377"><defs><style>.a{fill:#25a727;}.b{opacity:0.8;}.c{fill:#fff;}.d,.f{fill:#1a1a1a;}.d{stroke:#1a1a1a;stroke-miterlimit:10;stroke-width:0.755px;}.e{fill:none;}</style></defs><g transform="translate(0.377 -0.986)"><g transform="translate(0 0.986)"><rect class="a" width="52.708" height="62" rx="1.078" transform="translate(0)"/><g class="b" transform="translate(34.016 48.678)"><g transform="translate(10.347 4.842)"><path class="c" d="M274.067,334.024l-.26.536v0l-.777,1.455-.109.232a1.3,1.3,0,0,1-1.543.678,1.233,1.233,0,0,1-.2-.075,1.36,1.36,0,0,1-.312-.213,1.333,1.333,0,0,1-.355-.559,1.251,1.251,0,0,1-.063-.427,1.313,1.313,0,0,1,.126-.541l.319-.657.738-1.377.088-.192a1.154,1.154,0,0,1,.087-.15,1.387,1.387,0,0,1,.255-.292,1.309,1.309,0,0,1,1.393-.165,1.367,1.367,0,0,1,.317.216A1.3,1.3,0,0,1,274.067,334.024Z" transform="translate(-270.452 -332.151)"/></g><g transform="translate(7.487 2.406)"><path class="c" d="M269.043,330.122l-.092.191L267.65,333l-.319.659a1.228,1.228,0,0,0-.126.54,1.274,1.274,0,0,0,.417.986,1.249,1.249,0,0,0,.312.212,1.3,1.3,0,0,0,1.739-.6l.108-.228,1.343-2.765.261-.543a1.3,1.3,0,0,0-.292-1.526,1.283,1.283,0,0,0-.315-.215,1.289,1.289,0,0,0-1.736.607Z" transform="translate(-267.204 -329.384)"/></g><g transform="translate(4.759 0.903)"><path class="c" d="M265.944,328.415l-.091.192-1.3,2.686-.32.659a1.244,1.244,0,0,0-.126.541,1.279,1.279,0,0,0,.417.985,1.249,1.249,0,0,0,.313.213,1.3,1.3,0,0,0,1.738-.6l.109-.228,1.343-2.765.26-.543a1.3,1.3,0,1,0-2.343-1.135Z" transform="translate(-264.105 -327.677)"/></g><g transform="translate(1.965 0.213)"><path class="c" d="M262.468,327.632l-.091.191-1,2.062-.319.659a1.227,1.227,0,0,0-.126.54,1.279,1.279,0,0,0,.417.986,1.249,1.249,0,0,0,.312.212,1.3,1.3,0,0,0,1.739-.6l.108-.228,1.041-2.141.261-.543a1.3,1.3,0,0,0-.292-1.526,1.322,1.322,0,0,0-.315-.215,1.29,1.29,0,0,0-1.737.607Z" transform="translate(-260.932 -326.894)"/></g><path class="c" d="M258.894,327.39l-.066.107a1.231,1.231,0,0,0-.126.541,1.275,1.275,0,0,0,.417.985,1.218,1.218,0,0,0,.313.212,1.3,1.3,0,0,0,1.738-.6l.067-.107a1.3,1.3,0,0,0-.291-1.526,1.316,1.316,0,0,0-.315-.215,1.289,1.289,0,0,0-1.736.607Z" transform="translate(-258.701 -326.652)"/></g><g transform="translate(0 47.905)"><path class="d" d="M246.421,325.774c1.276,0,3.276.126,4.883.291a.948.948,0,0,1,.741,1.381l-.331.637a.948.948,0,0,1-.97.5,34.753,34.753,0,0,0-4.322-.324,31.53,31.53,0,0,0-24.441,11.608h-1.908v-1.595A34,34,0,0,1,246.421,325.774Z" transform="translate(-220.071 -325.774)"/><path class="d" d="M279.3,339.6v1.529h-1.918A29.516,29.516,0,0,0,275,338.492a.947.947,0,0,1-.184-1.118l.3-.57a.946.946,0,0,1,1.5-.242A35.53,35.53,0,0,1,279.3,339.6Z" transform="translate(-226.597 -327.03)"/></g><rect class="e" width="52.706" height="60.576" transform="translate(0 1.423)"/><g transform="translate(5.875 7.508)"><path class="f" d="M267.5,298.244a.937.937,0,0,0-1.035-.769c-1.016.114-13.631,1.509-17.294,1.205,0,0,7.66-.949,8.068-1.082v-9.833s.7-5.392-7.1-7.11c0,0,7.346-.294,8.1,6.872l.085,9.834,1.281-.285-.247-9.036A8.354,8.354,0,0,0,251,279.9l-7.992.038c-4.689,0-8.391,3.446-8.391,8.751v10.337c-2.306-.028-4.594-.294-6.882-.409a.948.948,0,0,0-.977,1.111l.181,1.063a.97.97,0,0,0,.9.788c3.521.151,7.062.427,10.621.427a248.054,248.054,0,0,0,28.4-1.624.97.97,0,0,0,.826-1.129Z" transform="translate(-226.742 -279.897)"/><path class="f" d="M256.825,306.911h-5.356a2.366,2.366,0,0,0-2.362,2.293h-1.331a2.366,2.366,0,0,0-2.363-2.293h-5.356a3.105,3.105,0,0,0-3.106,3.106v1.994A4.052,4.052,0,0,0,241,316.063a6.781,6.781,0,0,0,6.743-6.07h1.391a6.782,6.782,0,0,0,6.743,6.07,4.052,4.052,0,0,0,4.052-4.052v-1.994A3.106,3.106,0,0,0,256.825,306.911Z" transform="translate(-227.962 -283.124)"/></g></g></g></svg>