<svg xmlns="http://www.w3.org/2000/svg" width="494.408" height="180.187" viewBox="0 0 494.408 180.187"><defs><style>.a{fill:#25a727;}.b{fill:none;stroke:#25a727;stroke-miterlimit:10;stroke-dasharray:4 4;}</style></defs><g transform="translate(0.52 85.72) rotate(-11)"><g transform="translate(0 0)"><path class="a" d="M40.334,18a11.159,11.159,0,0,0,5.146-3.832,2.221,2.221,0,0,0,.345-1.192,1.058,1.058,0,0,0-.038-.282,1.1,1.1,0,0,0-.1-.24,2.157,2.157,0,0,0-.9-.88,11.127,11.127,0,0,0-6.361-.757,50.713,50.713,0,0,0-7.812,1.931c-.563.164-1.152.339-1.774.519L25.555,9.778l.017,0A1.03,1.03,0,0,0,26.3,8.515L26,7.38a1.028,1.028,0,0,0-.48-.628,1.011,1.011,0,0,0-.782-.105l-1.7.453-.468-.5a1.027,1.027,0,0,0,.5-.432,1.012,1.012,0,0,0,.1-.784l-.3-1.141a1.018,1.018,0,0,0-.482-.625.983.983,0,0,0-.776-.1l-1.553.414L16.722.377a1.156,1.156,0,0,0-.266-.209,1.24,1.24,0,0,0-.923-.13l-2.242.6a.975.975,0,0,0-.59.44.949.949,0,0,0,.012.984l5.748,9.68a1.844,1.844,0,0,1,.116.274L19.6,15.845c-3.647,1.073-7.006,2.219-9.742,3.322-.255.1-.5.2-.741.306L2.885,15.062a.732.732,0,0,0-.109-.074,1.411,1.411,0,0,0-1.01-.135l-1.045.278a.949.949,0,0,0-.592.441.934.934,0,0,0,.048,1.02L3.53,21.474a1.291,1.291,0,0,1,.1.23l.162.6a3.228,3.228,0,0,0-.7.782,1.372,1.372,0,0,0-.172,1.041l.01.024,0,.007a1.349,1.349,0,0,0,.664.81,3.275,3.275,0,0,0,.987.327l.163.616a1.055,1.055,0,0,1,.023.244l-.48,5.889a.945.945,0,0,0,.454.915l.007,0a.95.95,0,0,0,.726.091l1.073-.289a1.388,1.388,0,0,0,.793-.625.747.747,0,0,0,.043-.083l3.224-6.954c.258-.028.522-.066.794-.1,2.925-.409,6.408-1.093,10.1-1.973l1.021,3.832a1.673,1.673,0,0,1,.035.3L22.39,38.4a.96.96,0,0,0,.475.867.948.948,0,0,0,.735.091l2.26-.6a1.247,1.247,0,0,0,.724-.577,1.232,1.232,0,0,0,.123-.3l1.13-4.75,1.556-.414a1.032,1.032,0,0,0,.731-1.258l-.306-1.142a1.037,1.037,0,0,0-1.133-.755l.161-.664,1.7-.452a1.042,1.042,0,0,0,.623-.483,1.016,1.016,0,0,0,.1-.776l-.3-1.138a1.046,1.046,0,0,0-.484-.628,1.013,1.013,0,0,0-.778-.1h-.012L30.8,20.653c.638-.154,1.245-.3,1.822-.439A50.371,50.371,0,0,0,40.334,18Zm0,0" transform="translate(446.608 15.635)"/><path class="b" d="M0,56.527S29.763,8.169,109.56,16.52s76.924,84.705,52.71,78.74S148.618,36.8,210.744,46.346s64.848,40.563,111.8,25.054S383.6,5.849,357.462.446,322.6,40.381,372.3,42.767s74.119-1.193,74.119-1.193"/></g></g></svg>