<svg xmlns="http://www.w3.org/2000/svg" width="25.955" height="25.958" viewBox="0 0 25.955 25.958"><defs><style>.a{fill:#66757f;}.b{fill:#55acee;}.c{fill:#ccd6dd;}</style></defs><g transform="translate(8.535 1.681)"><path class="a" d="M389.841,256.634a.744.744,0,0,1-1.049,0l-1.049-1.049a.744.744,0,0,1,0-1.049l2.094-2.094a.744.744,0,0,1,1.049,0l1.049,1.049a.744.744,0,0,1,0,1.049Z" transform="translate(-376.417 -241.117)"/><path class="a" d="M170.741,37.534a.744.744,0,0,1-1.049,0l-1.049-1.049a.744.744,0,0,1,0-1.049l2.094-2.094a.744.744,0,0,1,1.049,0l1.049,1.049a.744.744,0,0,1,0,1.049Z" transform="translate(-168.425 -33.125)"/></g><g transform="translate(0 4.021)"><path class="b" d="M1.3,312.5c1.48,0,8.147.74,8.147.74s.74,6.667.74,8.147-1.48,1.48-2.221.74A45.335,45.335,0,0,1,5,317.686a45.338,45.338,0,0,1-4.441-2.961c-.74-.74-.745-2.226.735-2.226" transform="translate(-0.073 -300.676)"/><path class="b" d="M16.82,79.283c2.221-.03,18.515.71,18.515.71s.684,16.294.715,18.515-2.043,2.966-2.859,0-3.777-12.593-3.777-12.593-10.337-3.265-12.6-3.772c-2.956-.664-2.215-2.829.005-2.859" transform="translate(-14.116 -79.282)"/></g><path class="c" d="M93.911,1.743C95.392.263,99.1-.477,99.838.263s0,4.441-1.48,5.927S84.284,19.518,84.284,19.518s-4.816,3.331-5.927,2.221,2.221-5.927,2.221-5.927S92.431,3.229,93.911,1.743" transform="translate(-74.173 0.028)"/><g transform="translate(3.432 1.776)"><path class="a" d="M74.438,312.279s.37.37-2.961,3.7-3.706,2.966-3.706,2.966-.37-.37,2.961-3.7,3.706-2.966,3.706-2.966" transform="translate(-67.759 -298.211)"/><path class="a" d="M418.6,35.74a2.22,2.22,0,0,1,2.221,2.221h.6a2.112,2.112,0,0,0,.142-.74,2.185,2.185,0,0,0-2.961-2.079Z" transform="translate(-400.813 -35)"/></g></svg>