<svg xmlns="http://www.w3.org/2000/svg" width="15" height="13.94" viewBox="0 0 15 13.94"><defs><style>.a{fill:#25a727;}</style></defs><g transform="translate(-336.368 -229)"><path class="a" d="M344.909,229.614a.615.615,0,0,1,.614-.614,5.108,5.108,0,0,1,4.4,2.3,7.687,7.687,0,0,1,1.091,2.537,13.532,13.532,0,0,1,.352,3.206v5.284a.614.614,0,0,1-.615.615h-5.229a.615.615,0,0,1-.614-.615v-5.284a.615.615,0,0,1,.614-.614h1.962c-.092-2.452-.751-3.694-1.962-3.694a.615.615,0,0,1-.614-.614v-2.5Zm-7.927,3.118c1.2,0,1.844,1.242,1.934,3.694h-1.933a.613.613,0,0,0-.615.614v5.284a.614.614,0,0,0,.615.615h5.228a.615.615,0,0,0,.615-.615v-5.284a13.556,13.556,0,0,0-.352-3.206,7.7,7.7,0,0,0-1.091-2.537,5.108,5.108,0,0,0-4.4-2.3.615.615,0,0,0-.615.614v2.5a.615.615,0,0,0,.615.614Zm0,0"/></g></svg>