<svg xmlns="http://www.w3.org/2000/svg" width="53.04" height="50.199" viewBox="0 0 53.04 50.199"><defs><style>.a{fill:#25a727;}.b{fill:#c4c4c4;}</style></defs><g transform="translate(-70 -81)"><path class="a" d="M115.463,99.99a18.943,18.943,0,1,0-37.886-.047v.047a8.04,8.04,0,0,0-7.577,8v.948a8.044,8.044,0,0,0,8.051,8.051h.427l3.362,5.351a12.666,12.666,0,0,0,10.845,6.015h.663a3.789,3.789,0,1,0,0-1.894h-.663a10.806,10.806,0,0,1-9.235-5.162l-2.747-4.31h.663A1.9,1.9,0,0,0,83.26,115.1v-13.26a1.9,1.9,0,0,0-1.894-1.894H79.472a17.049,17.049,0,0,1,34.1,0h-1.894a1.9,1.9,0,0,0-1.894,1.894V115.1a1.9,1.9,0,0,0,1.894,1.894h3.315a8.044,8.044,0,0,0,8.051-8.051v-.948a8.04,8.04,0,0,0-7.577-8Zm-18.47,25.526a1.894,1.894,0,1,1-1.894,1.894,1.9,1.9,0,0,1,1.894-1.894ZM81.366,101.838V115.1H78.051a6.144,6.144,0,0,1-6.156-6.156v-.948a6.144,6.144,0,0,1,6.156-6.156Zm39.781,7.1a6.144,6.144,0,0,1-6.157,6.156h-3.315v-13.26h3.315a6.144,6.144,0,0,1,6.157,6.156Zm0,0"/><path class="b" d="M289.879,125.754a4.307,4.307,0,0,1-.379-.237,4.318,4.318,0,0,0-.379-.236.891.891,0,0,0-1.279.331.93.93,0,0,0,.332,1.279,4.377,4.377,0,0,1,.379.237,1.953,1.953,0,0,0,.426.236.914.914,0,0,0,.474.142.879.879,0,0,0,.8-.473.956.956,0,0,0-.379-1.279Zm0,0" transform="translate(-185.497 -37.603)"/><path class="b" d="M187.942,113a13.715,13.715,0,0,0-10.418,4.783.961.961,0,0,0,.095,1.326,1,1,0,0,0,.616.236.852.852,0,0,0,.71-.331,11.947,11.947,0,0,1,9-4.12,11.775,11.775,0,0,1,2.557.284,1,1,0,0,0,1.137-.71.989.989,0,0,0-.711-1.137,12.827,12.827,0,0,0-2.984-.331Zm0,0" transform="translate(-91.422 -27.264)"/></g></svg>