<svg xmlns="http://www.w3.org/2000/svg" width="40" height="60.188" viewBox="0 0 40 60.188"><defs><style>.a{fill:#c4c4c4;}.b{fill:#25a727;}</style></defs><g transform="translate(-85.867)"><g transform="translate(85.867)"><path class="a" d="M218.309,9.6a1.176,1.176,0,0,0,1.176-1.176V1.176a1.176,1.176,0,0,0-2.351,0V8.425A1.176,1.176,0,0,0,218.309,9.6Z" transform="translate(-201.702)"/><path class="a" d="M286.7,132.442a1.176,1.176,0,0,0,1.176,1.176h7.249a1.176,1.176,0,0,0,0-2.351h-7.249A1.176,1.176,0,0,0,286.7,132.442Z" transform="translate(-263.095 -115.835)"/><path class="a" d="M95.467,132.415a1.176,1.176,0,0,0-1.176-1.176H87.043a1.176,1.176,0,1,0,0,2.351h7.249A1.175,1.175,0,0,0,95.467,132.415Z" transform="translate(-85.867 -115.811)"/><path class="a" d="M135.242,51.019a1.176,1.176,0,1,0,1.662-1.663l-3.423-3.423A1.176,1.176,0,1,0,131.82,47.6Z" transform="translate(-126.114 -40.23)"/><path class="a" d="M274.842,51.382a1.171,1.171,0,0,0,.831-.344l3.423-3.423a1.176,1.176,0,0,0-1.663-1.663l-3.423,3.423a1.176,1.176,0,0,0,.831,2.007Z" transform="translate(-251.589 -40.247)"/></g><path class="b" d="M213.526,118.765a4.322,4.322,0,0,0-2.179.587A4.345,4.345,0,0,0,204,117.62a4.338,4.338,0,0,0-5.172-.892V108.6a4.35,4.35,0,1,0-8.7,0v6.2a1.176,1.176,0,0,0,2.351,0v-6.2a2,2,0,1,1,4,0v19.68a1.176,1.176,0,0,0,2.351,0V120.59a2,2,0,0,1,4,0v7.692a1.176,1.176,0,0,0,2.351,0V120.59a2,2,0,0,1,4,0v7.692a1.176,1.176,0,0,0,2.351,0v-5.167a2,2,0,1,1,4,0v12.293a14.552,14.552,0,0,1-.235,2.606,1.176,1.176,0,0,0,.946,1.367,1.19,1.19,0,0,0,.212.019,1.176,1.176,0,0,0,1.155-.965,16.923,16.923,0,0,0,.273-3.028V123.114A4.354,4.354,0,0,0,213.526,118.765Z" transform="translate(-92.009 -91.997)"/><path class="b" d="M135.854,274.573a14.427,14.427,0,0,1-22.83-4.277l-5.415-11.212a2.156,2.156,0,0,1,3.782-2.06l3.83,6.284a1.176,1.176,0,0,0,2.179-.612v-11.52a1.176,1.176,0,0,0-2.351,0v7.333L113.4,255.8a4.507,4.507,0,0,0-7.907,4.306l5.415,11.212a16.778,16.778,0,0,0,26.551,4.974,1.176,1.176,0,0,0-1.6-1.719Z" transform="translate(-16.925 -220.611)"/><path class="a" d="M391.218,422.67a1.176,1.176,0,1,0,.831.344A1.184,1.184,0,0,0,391.218,422.67Z" transform="translate(-268.418 -372.983)"/><path class="a" d="M191.308,220.351a1.176,1.176,0,1,0-.831-.344A1.184,1.184,0,0,0,191.308,220.351Z" transform="translate(-92.008 -192.373)"/></g></svg>