<svg xmlns="http://www.w3.org/2000/svg" width="30.552" height="27.348" viewBox="0 0 30.552 27.348"><defs><style>.a{fill:#ffd15c;}.b{fill:#ff7058;}.c{fill:#fff;}.d{fill:#40596b;}.e{fill:#4cdbc4;}</style></defs><g transform="translate(-0.01 -0.003)"><path class="a" d="M221.294,131.559l-2.081-10.164a1.272,1.272,0,0,0-1.5-.992l-11.541,2.352a1.267,1.267,0,0,0-.992,1.5l2.075,10.17a1.272,1.272,0,0,0,1.5.992l11.541-2.358A1.279,1.279,0,0,0,221.294,131.559Z" transform="translate(-192.801 -113.134)"/><path class="b" d="M294.876,134.9l.65,3.176-.421.638-.638-.421-.421.638-.637-.421-.427.632-.637-.421-.644-3.17Z" transform="translate(-274.147 -126.784)"/><g transform="translate(22.448 16.482)"><path class="c" d="M373.1,284.105l.86-1.305,1.311.86-.632.132.307,1.522-.908.18-.307-1.522Z" transform="translate(-373.1 -282.271)"/><path class="c" d="M416.2,275.305l.866-1.305,1.305.86-.631.132.313,1.522-.908.18-.313-1.516Z" transform="translate(-413.608 -274)"/></g><path class="d" d="M88.388,20.4a1.1,1.1,0,0,0-1.305-.854L74.868,22.07a3.5,3.5,0,0,0-2.658-1.744L68.174.887a1.111,1.111,0,0,0-1.317-.86l-4.42.956A1.1,1.1,0,0,0,62.9,3.143l3.338-.716,3.807,18.344a3.46,3.46,0,0,0-1.191,1.119,3.534,3.534,0,1,0,6.465,2.34L87.534,21.7A1.1,1.1,0,0,0,88.388,20.4Zm-15.475,4.15a1.323,1.323,0,0,1-.836.571,1.305,1.305,0,0,1-1-.192,1.323,1.323,0,0,1-.571-.836A1.291,1.291,0,0,1,70.7,23.1a1.323,1.323,0,0,1,.836-.571,1.7,1.7,0,0,1,.3-.03,1.327,1.327,0,0,1,1.269,1.053A1.349,1.349,0,0,1,72.913,24.548Z" transform="translate(-57.85)"/><path class="e" d="M4.845,10.1l-3.735.776a1.379,1.379,0,1,0,.559,2.7L5.4,12.8Z" transform="translate(0 -9.489)"/></g></svg>