<svg xmlns="http://www.w3.org/2000/svg" width="29.249" height="29.064" viewBox="0 0 29.249 29.064"><defs><style>.a{fill:#e3b954;}.b{fill:#d6a74f;}.c{fill:#edc85f;}.d{fill:#fffad2;}.e{fill:#323750;}.f{fill:#505a8c;}.g{fill:#3c5064;}</style></defs><g transform="translate(-3641.126 -2401.75)"><path class="a" d="M129.913,35.12l1.55,5.782a.609.609,0,0,1-.435.747l-12.745,3.418a.609.609,0,0,1-.747-.435l-1.55-5.782a.609.609,0,0,1,.435-.747l12.745-3.418A.609.609,0,0,1,129.913,35.12Z" transform="translate(3531.205 2367.085)"/><path class="b" d="M120.021,90.158l-1.733.465a.609.609,0,0,1-.747-.435l-1.556-5.776a.609.609,0,0,1,.435-.747l1.733-.465a.614.614,0,0,0-.435.747l1.55,5.782A.612.612,0,0,0,120.021,90.158Z" transform="translate(3531.205 2321.523)"/><path class="c" d="M160.7,129.726l3.816,14.234a.609.609,0,0,1-.435.747l-15.232,4.079a.609.609,0,0,1-.747-.435l-3.816-14.234a.609.609,0,0,1,.435-.747l15.232-4.079A.614.614,0,0,1,160.7,129.726Z" transform="translate(3504.638 2278.273)"/><path class="a" d="M150.734,203.516l-1.886.5a.609.609,0,0,1-.747-.435l-3.816-14.234a.609.609,0,0,1,.435-.747l1.886-.5a.614.614,0,0,0-.435.747l3.816,14.234A.6.6,0,0,0,150.734,203.516Z" transform="translate(3504.638 2223.047)"/><g transform="translate(3657.653 2402.677)"><path class="d" d="M315.323,168.216l-.478-1.776a.306.306,0,0,1,.214-.374l6.217-1.666.637,2.364-6.21,1.666A.3.3,0,0,1,315.323,168.216Z" transform="translate(-313.139 -157.381)"/><path class="d" d="M287.623,52.85l-.478-1.776a.306.306,0,0,1,.214-.374l3.362-.9.637,2.364-3.362.9A.306.306,0,0,1,287.623,52.85Z" transform="translate(-287.135 -49.8)"/></g><path class="e" d="M45.78,74.616l-16.2,4.342-1.213.325-.778.208L21.3,56.015l-1.978.533-.723.2a1.028,1.028,0,0,1-1.262-.729,1.074,1.074,0,0,1-.037-.306,1.048,1.048,0,0,1,.092-.386,1.036,1.036,0,0,1,.674-.57l2.027-.545.674-.184,1.274-.343.22-.061a.517.517,0,0,1,.57.22c.006.012.018.031.024.043a.271.271,0,0,1,.037.1l1.133,4.226.606,2.266h0l4.422,16.494,16.2-4.342a1.03,1.03,0,1,1,.527,1.991Z" transform="translate(3623.826 2349.308)"/><path class="f" d="M301.817,293.3a.122.122,0,0,1-.086.153l-.429.116h0l-.594.159h0l-2.291.612a.114.114,0,0,1-.147-.086l-.1-.355a.114.114,0,0,1,.086-.147l.429-.116-.318-1.182-.453.122a.1.1,0,0,1-.122-.1l.214-2.2a.1.1,0,0,1,.073-.086.1.1,0,0,1,.1.037l1.286,1.795a.1.1,0,0,1-.055.153l-.453.122.318,1.182,1.268-.337-.318-1.182-.453.122a.1.1,0,0,1-.122-.1l.214-2.2a.1.1,0,0,1,.074-.086.1.1,0,0,1,.1.037l1.286,1.795a.1.1,0,0,1-.055.153l-.453.122.318,1.182.429-.116a.114.114,0,0,1,.147.086Zm2.989-.674,1.654-.441a.119.119,0,0,0,.086-.147l-.1-.355a.119.119,0,0,0-.147-.086l-1.36.367-.165-.619a1.84,1.84,0,0,0,1.011-2.144l-.239-.888a.119.119,0,0,0-.147-.086l-3.313.888a.119.119,0,0,0-.086.147l.239.888a1.832,1.832,0,0,0,1.948,1.354l.165.619-1.36.367a.119.119,0,0,0-.086.147l.1.355a.122.122,0,0,0,.153.086l1.36-.367h0Z" transform="translate(3360.512 2129.057)"/><path class="d" d="M137.184,385.47a15.544,15.544,0,0,1-4.318-1.3,4.177,4.177,0,0,1-.827-1.586,4.121,4.121,0,1,1,5.145,2.885Z" transform="translate(3516.247 2045.343)"/><path class="g" d="M173.332,416.627a1.8,1.8,0,1,1-2.2-1.274A1.8,1.8,0,0,1,173.332,416.627Z" transform="translate(3480.674 2009.771)"/></g></svg>