<svg xmlns="http://www.w3.org/2000/svg" width="53" height="52.998" viewBox="0 0 53 52.998"><defs><style>.a{fill:#25a727;}.b{fill:#c4c4c4;}</style></defs><path class="a" d="M1.407,18.2,18.189,1.416a4.822,4.822,0,0,1,6.8,0l26.6,26.6a4.821,4.821,0,0,1,0,6.8l-2.069,2.069h0L35.616,50.8h1.926a1.1,1.1,0,1,1,0,2.208H15.46a1.1,1.1,0,0,1,0-2.208H27.2L1.407,25A4.817,4.817,0,0,1,1.407,18.2Zm1.561,5.243,26.6,26.6a2.584,2.584,0,0,0,1.837.758h.008a2.583,2.583,0,0,0,1.836-.758L47.183,36.11,21.636,10.563A1.1,1.1,0,1,1,23.2,9L48.744,34.549l1.289-1.289a2.614,2.614,0,0,0,0-3.681l-26.6-26.6a2.614,2.614,0,0,0-3.681,0L13.778,8.95,39.325,34.5a1.1,1.1,0,1,1-1.561,1.562L12.216,10.512,2.968,19.76A2.606,2.606,0,0,0,2.968,23.441Z" transform="translate(0 -0.011)"/><path class="b" d="M347.055,160.991a1.1,1.1,0,0,1,1.562,0l4.685,4.684a1.1,1.1,0,0,1,0,1.561l-3.123,3.123a1.1,1.1,0,0,1-1.561,0l-4.684-4.684a1.1,1.1,0,0,1,0-1.561Zm2.342,7.027,1.562-1.561-3.123-3.123-1.561,1.562Z" transform="translate(-336.194 -144.037)"/><path class="b" d="M311.245,57a1.1,1.1,0,0,1-.781-.324L310,56.211a1.1,1.1,0,0,1,1.562-1.561l.468.469A1.1,1.1,0,0,1,311.245,57Z" transform="translate(-291.405 -48.704)"/></svg>