<svg width="20" height="20" viewBox="0 0 20 20" fill="none" xmlns="http://www.w3.org/2000/svg">
<path d="M11.5133 9.99989L19.6848 1.82846C19.874 1.62535 19.9771 1.35671 19.9722 1.07914C19.9673 0.801566 19.8548 0.53673 19.6585 0.340426C19.4622 0.144121 19.1974 0.0316757 18.9198 0.0267783C18.6422 0.0218808 18.3736 0.124914 18.1705 0.314171L9.99906 8.4856L1.82763 0.314171C1.62452 0.124914 1.35588 0.0218808 1.07831 0.0267783C0.800738 0.0316757 0.535902 0.144121 0.339597 0.340426C0.143293 0.53673 0.0308475 0.801566 0.02595 1.07914C0.0210526 1.35671 0.124086 1.62535 0.313343 1.82846L8.48477 9.99989L0.313343 18.1713C0.112699 18.3722 0 18.6445 0 18.9285C0 19.2124 0.112699 19.4847 0.313343 19.6856C0.514236 19.8862 0.786556 19.9989 1.07049 19.9989C1.35442 19.9989 1.62674 19.8862 1.82763 19.6856L9.99906 11.5142L18.1705 19.6856C18.3714 19.8862 18.6437 19.9989 18.9276 19.9989C19.2116 19.9989 19.4839 19.8862 19.6848 19.6856C19.8854 19.4847 19.9981 19.2124 19.9981 18.9285C19.9981 18.6445 19.8854 18.3722 19.6848 18.1713L11.5133 9.99989Z" fill="#D8D8D8"/>
</svg>
